<?xml version="1.0" encoding="UTF-8"?>
<svg version="1.1" xmlns="http://www.w3.org/2000/svg" width="350" height="350">
<path d="M0 0 C1.83215032 -0.00270293 3.66429923 -0.00659195 5.4964447 -0.01159668 C9.312956 -0.01745267 13.12908968 -0.00905501 16.94555664 0.00976562 C21.80260515 0.03256915 26.65876985 0.0193983 31.51578617 -0.00452423 C35.29168693 -0.01907466 39.06738293 -0.01433447 42.84329033 -0.00401306 C44.63279771 -0.00137207 46.42232457 -0.00452135 48.21180916 -0.01393127 C62.46909922 -0.07248576 75.21594769 1.20110447 86.71484375 10.53125 C87.34003906 11.03269531 87.96523437 11.53414062 88.609375 12.05078125 C96.90516333 19.47903616 101.22830311 30.51529933 101.89439774 41.48947334 C101.96000613 44.94584589 101.96225868 48.39681715 101.94189453 51.85375977 C101.94218658 53.16205246 101.94247864 54.47034515 101.94277954 55.81828308 C101.94334975 59.37967608 101.93164973 62.94093239 101.91763163 66.50229383 C101.90506843 70.23385744 101.90394938 73.96542472 101.90158081 77.69700623 C101.89538238 84.75159717 101.87899389 91.8061256 101.85888183 98.8606891 C101.83647167 106.89701179 101.82551657 114.93333757 101.81549096 122.96968377 C101.79462608 139.49024235 101.75948219 156.01073818 101.71484375 172.53125 C98.31103973 173.66585134 95.81117363 173.61355201 92.22387695 173.55297852 C91.56994965 173.54337097 90.91602234 173.53376343 90.24227905 173.52386475 C88.08328349 173.49091373 85.92449275 173.4505668 83.765625 173.41015625 C82.26776347 173.38585131 80.76989438 173.36200794 79.27201843 173.33860779 C75.33132312 173.27580402 71.39076172 173.20672692 67.45019531 173.13635254 C62.72123771 173.05320027 57.99215059 172.97782302 53.26308441 172.90114594 C46.08022052 172.78381056 38.89759257 172.65658656 31.71484375 172.53125 C31.71484375 161.31125 31.71484375 150.09125 31.71484375 138.53125 C25.77484375 138.53125 19.83484375 138.53125 13.71484375 138.53125 C14.04484375 152.72125 14.37484375 166.91125 14.71484375 181.53125 C30.51559654 181.6476576 30.51559654 181.6476576 46.31640625 181.7265625 C52.76413189 181.7504432 59.21162959 181.7786477 65.65917969 181.83300781 C70.85929355 181.87657461 76.05916286 181.90041016 81.25944519 181.91075897 C83.24012601 181.91813088 85.22079395 181.93252651 87.20137024 181.95417023 C89.98284482 181.98334818 92.76331806 181.98719999 95.54492188 181.98535156 C96.76412827 182.00692322 96.76412827 182.00692322 98.00796509 182.02893066 C103.68509334 181.98829842 107.95737633 180.67624477 112.71484375 177.53125 C117.97335396 172.13435794 119.01188389 166.97892759 119.01782227 159.63574219 C119.03048126 158.46662796 119.03048126 158.46662796 119.043396 157.27389526 C119.06909944 154.70863206 119.08129387 152.14348365 119.09375 149.578125 C119.1099275 147.7940378 119.12710776 146.00995943 119.14524841 144.22589111 C119.19087518 139.53772044 119.22571881 134.849538 119.25744629 130.16125488 C119.30939044 122.64273806 119.3743015 115.1243503 119.44566154 107.60599518 C119.46855791 104.97519594 119.48478396 102.34441338 119.50038147 99.71356201 C119.51378105 98.11209933 119.52739523 96.51063842 119.54125977 94.90917969 C119.54387314 94.17257111 119.54648651 93.43596252 119.54917908 92.67703247 C119.60120245 87.6448913 119.60120245 87.6448913 120.71484375 86.53125 C122.82622276 86.43176807 124.94096661 86.40325362 127.0546875 86.40185547 C127.71647003 86.40010315 128.37825256 86.39835083 129.06008911 86.39654541 C131.25753365 86.39212783 133.45489833 86.39506453 135.65234375 86.3984375 C137.17309586 86.39776443 138.69384787 86.39679439 140.21459961 86.39553833 C143.40577211 86.39406149 146.59691667 86.39621548 149.78808594 86.40087891 C153.88748905 86.4065762 157.98682671 86.40329712 162.08622742 86.39730644 C165.22766619 86.39370046 168.36908933 86.39483958 171.51052856 86.39743423 C173.02247119 86.3981034 174.53441521 86.39727543 176.0463562 86.39495468 C178.15594262 86.39242755 180.26542162 86.39626956 182.375 86.40185547 C183.57777588 86.40265106 184.78055176 86.40344666 186.01977539 86.40426636 C188.71484375 86.53125 188.71484375 86.53125 189.71484375 87.53125 C189.82580507 89.93736494 189.87222802 92.3150462 189.87597656 94.72216797 C189.88094147 95.47517685 189.88590637 96.22818573 189.89102173 97.00401306 C189.90569507 99.51049704 189.91245796 102.0169175 189.91796875 104.5234375 C189.92372106 106.26685589 189.92947878 108.01027427 189.9352417 109.75369263 C189.94576983 113.42075902 189.95159893 117.08780341 189.95507812 120.75488281 C189.96053158 125.4296026 189.98448369 130.10402648 190.01305008 134.7786541 C190.03178834 138.3871644 190.03688823 141.99560549 190.038414 145.60416031 C190.04142175 147.3255587 190.04938605 149.04695642 190.06259918 150.76830673 C190.17965823 167.20761977 187.75089091 182.20433896 176.52734375 195.03125 C171.08248337 199.87112589 165.71356948 203.40645701 158.71484375 205.53125 C159.5346875 205.92957031 160.35453125 206.32789063 161.19921875 206.73828125 C162.276875 207.26808594 163.35453125 207.79789063 164.46484375 208.34375 C165.5321875 208.86582031 166.59953125 209.38789063 167.69921875 209.92578125 C170.2814972 211.30054348 172.52824068 212.59408951 174.71484375 214.53125 C174.71484375 215.19125 174.71484375 215.85125 174.71484375 216.53125 C175.37484375 216.53125 176.03484375 216.53125 176.71484375 216.53125 C176.71484375 217.19125 176.71484375 217.85125 176.71484375 218.53125 C177.37484375 218.53125 178.03484375 218.53125 178.71484375 218.53125 C190.33334504 232.70514014 190.40052995 250.26047439 190.02734375 267.53125 C190.00219621 269.57809735 189.97939459 271.62497493 189.95898438 273.671875 C189.90457783 278.6257634 189.81867204 283.57816115 189.71484375 288.53125 C186.91217967 289.93258204 184.59599037 289.65849805 181.4609375 289.66064453 C180.14617432 289.66379669 178.83141113 289.66694885 177.47680664 289.67019653 C176.03531867 289.6684067 174.59383101 289.66635573 173.15234375 289.6640625 C171.680257 289.66473584 170.20817035 289.66570611 168.73608398 289.66696167 C165.64924055 289.66843723 162.56242602 289.66628862 159.47558594 289.66162109 C155.51419269 289.65592388 151.5528672 289.65920364 147.59147644 289.66519356 C144.55122363 289.66880298 141.51098694 289.66765882 138.47073364 289.66506577 C137.0098571 289.66439755 135.5489791 289.66522124 134.08810425 289.66754532 C132.04831977 289.67007803 130.00853018 289.66553493 127.96875 289.66064453 C126.22573608 289.65945114 126.22573608 289.65945114 124.44750977 289.65823364 C121.71484375 289.53125 121.71484375 289.53125 119.71484375 288.53125 C119.71073486 287.33113281 119.70662598 286.13101562 119.70239258 284.89453125 C119.68051222 280.41379685 119.62613079 275.93392951 119.56225586 271.45361328 C119.53915324 269.51977897 119.52469841 267.58582021 119.51928711 265.65185547 C119.50994069 262.86087183 119.46882757 260.07182459 119.421875 257.28125 C119.42777397 255.997948 119.42777397 255.997948 119.43379211 254.6887207 C119.28511874 248.48049277 117.61479473 244.37297105 113.71484375 239.53125 C109.45941682 235.57978214 106.37546509 234.40927492 100.63792419 234.39321899 C99.06314049 234.38503899 99.06314049 234.38503899 97.45654297 234.37669373 C96.30484619 234.3756514 95.15314941 234.37460907 93.96655273 234.37353516 C92.75322769 234.36845444 91.53990265 234.36337372 90.28981018 234.35813904 C87.6493986 234.34742378 85.00903979 234.3384259 82.36861992 234.33201981 C78.18597613 234.32132321 74.00341278 234.30107136 69.82081604 234.27890015 C57.92639883 234.21704007 46.0319855 234.16305927 34.13745117 234.12988281 C27.56884654 234.11148123 21.00037599 234.0824725 14.43187004 234.0418781 C10.95959107 234.02089293 7.48748051 234.00536306 4.01513481 234.00307083 C0.13291569 234.00050517 -3.74897514 233.9749485 -7.63110352 233.94775391 C-8.76863068 233.95076004 -9.90615784 233.95376617 -11.07815552 233.9568634 C-19.98652814 233.86447282 -27.9720271 232.42545116 -35.59765625 227.59375 C-36.37753906 227.11035156 -37.15742187 226.62695312 -37.9609375 226.12890625 C-42.75425444 222.83400435 -46.16466333 219.71198939 -49.41015625 214.84375 C-50.40402344 213.38388672 -50.40402344 213.38388672 -51.41796875 211.89453125 C-55.74934855 204.09261073 -56.7220188 197.08766431 -56.64160156 188.24414062 C-56.64364594 187.15203278 -56.64569031 186.05992493 -56.64779663 184.9347229 C-56.65078671 181.35214077 -56.63238756 177.77002683 -56.61328125 174.1875 C-56.61022177 171.69169224 -56.60834709 169.19588277 -56.60760498 166.70007324 C-56.60242724 160.81889647 -56.58320815 154.93789077 -56.55775523 149.05676985 C-56.53271737 143.02318736 -56.52672734 136.98965878 -56.52272415 130.9560318 C-56.51857955 125.81069717 -56.50877206 120.66538733 -56.49684906 115.52006531 C-56.49113635 113.04799092 -56.48638097 110.57591413 -56.48258209 108.10383606 C-56.47574792 104.66358177 -56.46213226 101.2234262 -56.44628906 97.78320312 C-56.4451712 96.75365509 -56.44405334 95.72410706 -56.44290161 94.6633606 C-56.43719147 93.73260712 -56.43148132 92.80185364 -56.42559814 91.84289551 C-56.42262348 91.02958015 -56.41964882 90.2162648 -56.41658401 89.37830353 C-56.28515625 87.53125 -56.28515625 87.53125 -55.28515625 86.53125 C-52.60813189 86.40612856 -49.95563352 86.34518431 -47.27709961 86.32592773 C-46.43814651 86.31602814 -45.59919342 86.30612854 -44.7348175 86.29592896 C-41.94824085 86.26421815 -39.16164712 86.23951886 -36.375 86.21484375 C-34.44828333 86.19428248 -32.52157126 86.17328624 -30.59486389 86.15187073 C-25.51333325 86.09656458 -20.43176133 86.04719312 -15.35015869 85.99902344 C-10.16894845 85.94887062 -4.98779845 85.89315217 0.19335938 85.83789062 C10.36713804 85.73020461 20.54096762 85.62929702 30.71484375 85.53125 C30.71484375 74.64125 30.71484375 63.75125 30.71484375 52.53125 C25.43484375 52.53125 20.15484375 52.53125 14.71484375 52.53125 C14.38484375 60.78125 14.05484375 69.03125 13.71484375 77.53125 C-9.38515625 77.53125 -32.48515625 77.53125 -56.28515625 77.53125 C-56.38828125 70.68375 -56.49140625 63.83625 -56.59765625 56.78125 C-56.66593628 53.57776855 -56.66593628 53.57776855 -56.7355957 50.30957031 C-56.864079 39.97963199 -56.65286806 31.64078097 -51.28515625 22.53125 C-50.75180664 21.61327637 -50.21845703 20.69530273 -49.66894531 19.74951172 C-43.48685032 9.63608447 -34.61907258 4.36250416 -23.38528442 1.32983398 C-15.71217008 -0.34776487 -7.81192358 -0.04113273 0 0 Z " fill="#FBFBFB" transform="translate(103.28515625,25.46875)"/>
<path d="M0 0 C1.22355698 0.00222061 2.44711395 0.00444122 3.70774841 0.00672913 C4.71746201 0.00651009 4.71746201 0.00651009 5.74757385 0.00628662 C7.98229649 0.00698573 10.21693674 0.01477799 12.4516449 0.02259827 C13.99721226 0.02446245 15.54278022 0.02588635 17.08834839 0.02688599 C21.16380941 0.03071112 25.23923502 0.04054135 29.31468201 0.05158997 C33.47035747 0.0618042 37.62603864 0.06638363 41.78172302 0.07142639 C49.94124452 0.08216363 58.10073718 0.09923998 66.26023865 0.12025452 C67.07410397 2.95432589 67.36372633 5.39469808 67.28196716 8.33802795 C67.26187088 9.15857666 67.2417746 9.97912537 67.22106934 10.82453918 C67.19403427 11.70071899 67.16699921 12.5768988 67.1391449 13.47962952 C67.10372841 14.83619659 67.10372841 14.83619659 67.06759644 16.22016907 C66.99113146 19.1036974 66.90703329 21.98694549 66.82273865 24.87025452 C66.76950078 26.82727213 66.7167605 28.78430336 66.66453552 30.74134827 C66.53553954 35.53449389 66.39969812 40.32740238 66.26023865 45.12025452 C63.48530302 46.50772233 61.21903918 46.25514709 58.11399841 46.26551819 C56.82248367 46.27189804 55.53096893 46.27827789 54.20031738 46.28485107 C52.7840936 46.28637968 51.36786932 46.28749368 49.9516449 46.28822327 C48.50437385 46.29143542 47.05710312 46.29479946 45.60983276 46.29830933 C42.57426704 46.30430183 39.53872979 46.3061491 36.50315857 46.30555725 C32.61131429 46.3054556 28.71965235 46.31910973 24.8278513 46.33632946 C21.8381669 46.34744176 18.84852671 46.3494767 15.85882378 46.34894753 C14.42388721 46.35012873 12.98894955 46.35455839 11.55403328 46.36227989 C9.54800383 46.37206398 7.54192106 46.36794158 5.53587341 46.36317444 C3.82283775 46.36531197 3.82283775 46.36531197 2.07519531 46.36749268 C-0.73976135 46.12025452 -0.73976135 46.12025452 -3.73976135 44.12025452 C-4.10725403 42.25402832 -4.10725403 42.25402832 -4.09620667 39.96180725 C-4.09920776 39.10429367 -4.10220886 38.24678009 -4.1053009 37.36328125 C-4.0929541 36.43616837 -4.0806073 35.50905548 -4.06788635 34.55384827 C-4.06601318 33.6046199 -4.06414001 32.65539154 -4.06221008 31.67739868 C-4.05548124 29.66913851 -4.04155033 27.66089163 -4.02101135 25.65272522 C-3.98985379 22.56690901 -3.98004202 19.48160304 -3.97413635 16.39564514 C-3.96496693 14.44837324 -3.95459135 12.50110657 -3.94288635 10.55384827 C-3.93863647 9.62471115 -3.9343866 8.69557404 -3.93000793 7.73828125 C-3.92040039 6.88391983 -3.91079285 6.02955841 -3.90089417 5.14930725 C-3.89406616 4.39366989 -3.88723816 3.63803253 -3.88020325 2.85949707 C-3.64214195 -0.0886712 -2.97626814 0.13063535 0 0 Z " fill="#FEFEFE" transform="translate(137.73976135253906,268.87974548339844)"/>
<path d="M0 0 C1.22355698 0.00222061 2.44711395 0.00444122 3.70774841 0.00672913 C4.71746201 0.00651009 4.71746201 0.00651009 5.74757385 0.00628662 C7.98229649 0.00698573 10.21693674 0.01477799 12.4516449 0.02259827 C13.99721226 0.02446245 15.54278022 0.02588635 17.08834839 0.02688599 C21.16380941 0.03071112 25.23923502 0.04054135 29.31468201 0.05158997 C33.47035747 0.0618042 37.62603864 0.06638363 41.78172302 0.07142639 C49.94124452 0.08216363 58.10073718 0.09923998 66.26023865 0.12025452 C67.07410397 2.95432589 67.36372633 5.39469808 67.28196716 8.33802795 C67.26187088 9.15857666 67.2417746 9.97912537 67.22106934 10.82453918 C67.19403427 11.70071899 67.16699921 12.5768988 67.1391449 13.47962952 C67.10372841 14.83619659 67.10372841 14.83619659 67.06759644 16.22016907 C66.99113146 19.1036974 66.90703329 21.98694549 66.82273865 24.87025452 C66.76950078 26.82727213 66.7167605 28.78430336 66.66453552 30.74134827 C66.53553954 35.53449389 66.39969812 40.32740238 66.26023865 45.12025452 C63.48530302 46.50772233 61.21903918 46.25514709 58.11399841 46.26551819 C56.82248367 46.27189804 55.53096893 46.27827789 54.20031738 46.28485107 C52.7840936 46.28637968 51.36786932 46.28749368 49.9516449 46.28822327 C48.50437385 46.29143542 47.05710312 46.29479946 45.60983276 46.29830933 C42.57426704 46.30430183 39.53872979 46.3061491 36.50315857 46.30555725 C32.61131429 46.3054556 28.71965235 46.31910973 24.8278513 46.33632946 C21.8381669 46.34744176 18.84852671 46.3494767 15.85882378 46.34894753 C14.42388721 46.35012873 12.98894955 46.35455839 11.55403328 46.36227989 C9.54800383 46.37206398 7.54192106 46.36794158 5.53587341 46.36317444 C3.82283775 46.36531197 3.82283775 46.36531197 2.07519531 46.36749268 C-0.73976135 46.12025452 -0.73976135 46.12025452 -3.73976135 44.12025452 C-4.10725403 42.25402832 -4.10725403 42.25402832 -4.09620667 39.96180725 C-4.09920776 39.10429367 -4.10220886 38.24678009 -4.1053009 37.36328125 C-4.0929541 36.43616837 -4.0806073 35.50905548 -4.06788635 34.55384827 C-4.06601318 33.6046199 -4.06414001 32.65539154 -4.06221008 31.67739868 C-4.05548124 29.66913851 -4.04155033 27.66089163 -4.02101135 25.65272522 C-3.98985379 22.56690901 -3.98004202 19.48160304 -3.97413635 16.39564514 C-3.96496693 14.44837324 -3.95459135 12.50110657 -3.94288635 10.55384827 C-3.93863647 9.62471115 -3.9343866 8.69557404 -3.93000793 7.73828125 C-3.92040039 6.88391983 -3.91079285 6.02955841 -3.90089417 5.14930725 C-3.89406616 4.39366989 -3.88723816 3.63803253 -3.88020325 2.85949707 C-3.64214195 -0.0886712 -2.97626814 0.13063535 0 0 Z M-1.73976135 1.12025452 C-1.73976135 15.31025452 -1.73976135 29.50025452 -1.73976135 44.12025452 C20.37023865 44.12025452 42.48023865 44.12025452 65.26023865 44.12025452 C65.26023865 29.93025452 65.26023865 15.74025452 65.26023865 1.12025452 C43.15023865 1.12025452 21.04023865 1.12025452 -1.73976135 1.12025452 Z " fill="#918F8F" transform="translate(137.73976135253906,268.87974548339844)"/>
<path d="M0 0 C1.61949011 2.57213134 2.04408751 3.67669159 1.625 6.75 C1.41875 7.4925 1.2125 8.235 1 9 C0.67 9 0.34 9 0 9 C-0.33 21.87 -0.66 34.74 -1 48 C21.44 48 43.88 48 67 48 C67 39.75 67 31.5 67 23 C68.5220959 21.4779041 69.88210082 21.87040479 72 21.8671875 C72.804375 21.86589844 73.60875 21.86460938 74.4375 21.86328125 C75.283125 21.86714844 76.12875 21.87101562 77 21.875 C78.2684375 21.86919922 78.2684375 21.86919922 79.5625 21.86328125 C80.366875 21.86457031 81.17125 21.86585937 82 21.8671875 C82.7425 21.86831543 83.485 21.86944336 84.25 21.87060547 C86 22 86 22 87 23 C87.10091475 25.58189446 87.13971499 28.136465 87.1328125 30.71875 C87.13376923 31.49182495 87.13472595 32.2648999 87.13571167 33.06140137 C87.13639341 34.69897544 87.13453957 36.33655219 87.13037109 37.97412109 C87.12502271 40.48931921 87.13031626 43.00433873 87.13671875 45.51953125 C87.13605797 47.10677123 87.1347768 48.6940111 87.1328125 50.28125 C87.13483673 51.03853394 87.13686096 51.79581787 87.13894653 52.5760498 C87.11495132 57.88504868 87.11495132 57.88504868 86 59 C83.29161914 59.09514592 80.60881487 59.12554932 77.90014648 59.11352539 C77.05143982 59.11367142 76.20273315 59.11381744 75.32830811 59.1139679 C72.50921109 59.11326848 69.69017929 59.10547478 66.87109375 59.09765625 C64.92196183 59.09579217 62.97282945 59.09436822 61.0236969 59.09336853 C55.88293168 59.08954255 50.74219453 59.07971159 45.60144043 59.06866455 C40.35994852 59.05845215 35.1184521 59.05387128 29.87695312 59.04882812 C19.58462306 59.03808939 9.29231386 59.02101201 -1 59 C-1 58.67 -1 58.34 -1 58 C27.38 57.67 55.76 57.34 85 57 C85 46.11 85 35.22 85 24 C79.72 24 74.44 24 69 24 C68.67 32.25 68.34 40.5 68 49 C44.9 49 21.8 49 -2 49 C-2.04125 42.02875 -2.0825 35.0575 -2.125 27.875 C-2.14320801 25.68472168 -2.16141602 23.49444336 -2.18017578 21.23779297 C-2.18602055 19.4892603 -2.19111614 17.7407249 -2.1953125 15.9921875 C-2.20554443 15.09443604 -2.21577637 14.19668457 -2.22631836 13.27172852 C-2.22765879 8.43411282 -1.88942927 4.54378319 0 0 Z " fill="#7D7A79" transform="translate(49,54)"/>
<path d="M0 0 C0.33 0 0.66 0 1 0 C1 14.52 1 29.04 1 44 C-1.80266408 45.40133204 -4.11885338 45.12724805 -7.25390625 45.12939453 C-9.22605103 45.13412277 -9.22605103 45.13412277 -11.23803711 45.13894653 C-12.67952508 45.1371567 -14.12101274 45.13510573 -15.5625 45.1328125 C-17.03458675 45.13348584 -18.5066734 45.13445611 -19.97875977 45.13571167 C-23.0656032 45.13718723 -26.15241773 45.13503862 -29.23925781 45.13037109 C-33.20065106 45.12467388 -37.16197655 45.12795364 -41.12336731 45.13394356 C-44.16362012 45.13755298 -47.20385681 45.13640882 -50.24411011 45.13381577 C-51.70498665 45.13314755 -53.16586465 45.13397124 -54.6267395 45.13629532 C-56.66652398 45.13882803 -58.70631357 45.13428493 -60.74609375 45.12939453 C-61.90810303 45.12859894 -63.0701123 45.12780334 -64.26733398 45.12698364 C-67 45 -67 45 -69 44 C-69 30.47 -69 16.94 -69 3 C-68.67 3 -68.34 3 -68 3 C-68 16.2 -68 29.4 -68 43 C-63.25882813 42.91621094 -58.51765625 42.83242188 -53.6328125 42.74609375 C-50.63412173 42.69539641 -47.63543204 42.64500198 -44.63671875 42.59570312 C-39.87412917 42.51737712 -35.11157718 42.43791333 -30.34912109 42.35180664 C-26.51073555 42.28247744 -22.67229617 42.21814035 -18.83376694 42.15730476 C-17.36727724 42.13317747 -15.90081631 42.10723314 -14.43439102 42.07946587 C-12.38485463 42.04096368 -10.3353123 42.00884823 -8.28564453 41.97827148 C-7.11760284 41.95828598 -5.94956116 41.93830048 -4.74612427 41.91770935 C-2 42 -2 42 0 43 C0 28.81 0 14.62 0 0 Z " fill="#8D8A8A" transform="translate(292,270)"/>
<path d="M0 0 C0 0.99 0 1.98 0 3 C-42.57 2.67 -85.14 2.34 -129 2 C-129 1.67 -129 1.34 -129 1 C-112.62345334 0.86947154 -96.2469056 0.73907891 -79.87035656 0.60884857 C-72.26667925 0.54837909 -64.6630023 0.48786493 -57.05932617 0.42724609 C-50.4330241 0.3744193 -43.80672137 0.32167582 -37.18041784 0.26903296 C-33.67090355 0.24114859 -30.16138961 0.21322212 -26.65187645 0.18519592 C-22.7369128 0.15393345 -18.82194768 0.12285696 -14.90698242 0.09179688 C-13.7395752 0.08244614 -12.57216797 0.0730954 -11.36938477 0.0634613 C-10.30507736 0.05504715 -9.24076996 0.046633 -8.14421082 0.03796387 C-7.21780887 0.03058952 -6.29140692 0.02321518 -5.33693218 0.01561737 C-3.5579869 0.00372894 -1.77898501 0 0 0 Z " fill="#999594" transform="translate(212,257)"/>
<path d="M0 0 C1.61949011 2.57213134 2.04408751 3.67669159 1.625 6.75 C1.41875 7.4925 1.2125 8.235 1 9 C0.67 9 0.34 9 0 9 C-0.33 21.87 -0.66 34.74 -1 48 C-1.33 48 -1.66 48 -2 48 C-2.04955876 42.12843039 -2.08579487 36.25698345 -2.10986328 30.38525391 C-2.11990052 28.38913857 -2.1335332 26.39303786 -2.15087891 24.39697266 C-2.17522735 21.52242413 -2.18650605 18.64807059 -2.1953125 15.7734375 C-2.20563507 14.88570648 -2.21595764 13.99797546 -2.22659302 13.08334351 C-2.2274508 8.31115375 -1.85434578 4.48507854 0 0 Z " fill="#D3CECD" transform="translate(49,54)"/>
<path d="M0 0 C3.48331435 3.01887244 4.79157144 5.56909529 6 10 C4.125 9.8125 4.125 9.8125 2 9 C0.21715186 5.70173093 0 3.8225249 0 0 Z " fill="#BDBAB7" transform="translate(282,246)"/>
<path d="M0 0 C0.66 0.33 1.32 0.66 2 1 C0.93344655 3.90878214 0.32878952 4.83560524 -2.5 6.25 C-5 7 -5 7 -7 7 C-7 7.66 -7 8.32 -7 9 C-7.66 8.67 -8.32 8.34 -9 8 C-6.14723863 5.06799526 -3.34920216 2.35684596 0 0 Z " fill="#B0ADAE" transform="translate(67,32)"/>
<path d="M0 0 C0.66 0.33 1.32 0.66 2 1 C2.99 1.33 3.98 1.66 5 2 C5.33 3.98 5.66 5.96 6 8 C3.36 6.02 0.72 4.04 -2 2 C-1.34 1.34 -0.68 0.68 0 0 Z " fill="#B0AFAA" transform="translate(214,259)"/>
<path d="M0 0 C-1.24976756 3.65316671 -1.67098753 4.78065836 -5 7 C-6 4 -6 4 -5 1 C-3 0 -3 0 0 0 Z " fill="#C5C2C3" transform="translate(285,212)"/>
<path d="M0 0 C0 0.99 0 1.98 0 3 C-4.29 2.67 -8.58 2.34 -13 2 C-13 1.67 -13 1.34 -13 1 C-11.39602723 0.83147753 -9.7918131 0.66525114 -8.1875 0.5 C-7.29417969 0.4071875 -6.40085938 0.314375 -5.48046875 0.21875 C-3 0 -3 0 0 0 Z " fill="#CDC9C8" transform="translate(212,257)"/>
<path d="M0 0 C1.53656962 2.4404341 2.02089707 3.70744102 1.8125 6.625 C1 9 1 9 -2 11 C-1 3.57142857 -1 3.57142857 0 0 Z " fill="#9B9898" transform="translate(49,54)"/>
<path d="M0 0 C1.41623216 -0.05447047 2.83308191 -0.09300508 4.25 -0.125 C5.03890625 -0.14820312 5.8278125 -0.17140625 6.640625 -0.1953125 C9.20731941 0.0171622 10.7916067 0.71345895 13 2 C12.01 2.33 11.02 2.66 10 3 C9.34 3.66 8.68 4.32 8 5 C7.67 4.01 7.34 3.02 7 2 C4.69 1.67 2.38 1.34 0 1 C0 0.67 0 0.34 0 0 Z " fill="#D2CFCD" transform="translate(163,27)"/>
<path d="M0 0 C0.66 0.66 1.32 1.32 2 2 C1.67 2.33 1.34 2.66 1 3 C-0.69141656 2.91036938 -2.37959602 2.75422324 -4.0625 2.5625 C-5.44115234 2.40974609 -5.44115234 2.40974609 -6.84765625 2.25390625 C-7.55792969 2.17011719 -8.26820313 2.08632813 -9 2 C-9 1.67 -9 1.34 -9 1 C-7.54364629 0.77825067 -6.08477044 0.57301302 -4.625 0.375 C-3.40683594 0.20097656 -3.40683594 0.20097656 -2.1640625 0.0234375 C-1.44992188 0.01570313 -0.73578125 0.00796875 0 0 Z " fill="#979495" transform="translate(201,312)"/>
<path d="M0 0 C2.15377564 2.62198774 3.40072174 4.64404172 4 8 C3.34 8 2.68 8 2 8 C2 7.34 2 6.68 2 6 C1.01 5.67 0.02 5.34 -1 5 C-0.67 3.35 -0.34 1.7 0 0 Z " fill="#B9B7B3" transform="translate(198,46)"/>
</svg>
